<svg class="svg-icon" style="width: 1em; height: 1em;vertical-align: middle;fill: currentColor;overflow: hidden;" viewBox="0 0 1024 1024" version="1.1" xmlns="http://www.w3.org/2000/svg"><path d="M718.165333 360.32a42.709333 42.709333 0 0 0-72.533333 2.474667l-123.349333 215.808-140.501334-421.418667a42.112 42.112 0 0 0-42.069333-29.141333 42.666667 42.666667 0 0 0-39.765333 32.256L222.677333 469.333333H85.333333v85.333334h170.666667c19.584 0 36.608-13.354667 41.386667-32.298667l49.834666-199.168 124.330667 372.992a42.624 42.624 0 0 0 77.482667 7.637333l136.405333-238.72 47.061333 70.570667c7.936 11.861333 21.248 18.986667 35.498667 18.986667h170.666667v-85.333334h-147.84l-72.661334-109.013333z" fill="" /></svg>