<svg width="16" height="16" viewBox="0 0 16 16" fill="none" xmlns="http://www.w3.org/2000/svg">
<g clip-path="url(#clip0_12_2)">
<path d="M9.55337 13.3333H9.41337C9.13121 13.3053 8.86532 13.1881 8.65432 12.9987C8.44332 12.8093 8.2982 12.5575 8.24004 12.28L6.45337 4L4.61337 8.26666C4.56133 8.38592 4.47553 8.48733 4.36654 8.55841C4.25756 8.62949 4.13015 8.66712 4.00004 8.66666H2.00004C1.82323 8.66666 1.65366 8.59643 1.52864 8.4714C1.40361 8.34638 1.33337 8.17681 1.33337 8C1.33337 7.82319 1.40361 7.65362 1.52864 7.52859C1.65366 7.40357 1.82323 7.33333 2.00004 7.33333H3.56004L5.23337 3.47333C5.34602 3.21431 5.53801 2.99774 5.78167 2.85487C6.02533 2.712 6.30806 2.6502 6.58911 2.67838C6.87016 2.70655 7.135 2.82326 7.34544 3.01166C7.55589 3.20007 7.70106 3.45043 7.76004 3.72666L9.54671 12L11.3867 7.74666C11.4367 7.62492 11.5217 7.5207 11.6308 7.44715C11.7399 7.37359 11.8684 7.33399 12 7.33333H14C14.1769 7.33333 14.3464 7.40357 14.4714 7.52859C14.5965 7.65362 14.6667 7.82319 14.6667 8C14.6667 8.17681 14.5965 8.34638 14.4714 8.4714C14.3464 8.59643 14.1769 8.66666 14 8.66666H12.44L10.7667 12.5267C10.6645 12.7643 10.4954 12.9672 10.28 13.1104C10.0645 13.2536 9.81207 13.3311 9.55337 13.3333Z" fill="#231F20"/>
</g>
<defs>
<clipPath id="clip0_12_2">
<rect width="16" height="16" fill="white"/>
</clipPath>
</defs>
</svg>
